
<svg xmlns="http://www.w3.org/2000/svg" viewBox="0 0 640 480">
  <g stroke-width="1pt">
    <path fill="#229e45" fill-rule="evenodd" d="M0 0h640v480H0z"/>
    <path fill="#f8e509" fill-rule="evenodd" d="M321.4 436l301.5-195.7L319.6 44 17.1 240.7 321.4 436z"/>
    <path fill="#2b49a3" fill-rule="evenodd" d="M452.8 240c0 70.3-57.1 127.3-127.6 127.3A127.4 127.4 0 1 1 452.8 240z"/>
    <path fill="#ffffef" fill-rule="evenodd" d="M283.3 316.3l-4-2.3-4 2 .9-4.5-3.2-3.4 4.5-.5 2.2-4 1.9 4.2 4.4.8-3.3 3m-13.3 23.2l-3.9-2.3-4 2 .9-4.5-3.3-3.3 4.5-.5 2.3-4 1.8 4.1 4.5.8-3.4 3.1m-35.5 7.6l-3.9-2.3-4 2 .9-4.4-3.3-3.3 4.5-.6 2.3-4 1.9 4.2 4.4.8-3.3 3.1m135.6-1.4l-3.2-1.9-3.2 1.6.7-3.6-2.7-2.7 3.7-.4 1.8-3.2 1.6 3.3 3.6.6-2.7 2.5m-5.7-28.3l-3.2-1.8-3.1 1.5.7-3.6-2.6-2.6 3.6-.4 1.8-3.2 1.5 3.3 3.6.7-2.8 2.4"/>
    <path fill="#ffffef" fill-rule="evenodd" d="M324.7 288.7l-3.3-1.9-3.1 1.6.7-3.6-2.6-2.7 3.6-.4 1.8-3.2 1.5 3.3 3.6.7-2.7 2.5m-19.1 2.5l-3-1.9-3 1.6.6-3.6-2.5-2.7 3.6-.4 1.7-3.2 1.5 3.3 3.6.7-2.8 2.5m-183.3 74.4l-3-1.9-3 1.6.6-3.6-2.5-2.7 3.6-.4 1.7-3.2 1.5 3.3 3.6.7-2.7 2.5m17.4-1.8l-2.6-1.5-2.7 1.3.6-3-2.2-2.2 3-.4 1.5-2.7 1.3 2.8 3 .5-2.2 2.1m-17.8-15.9l-2.7-1.5-2.6 1.3.5-3-2.2-2.2 3.1-.4 1.4-2.7 1.3 2.8 3 .6-2.3 2.1m262.1-61.3l-3-1.9-3 1.6.6-3.6-2.5-2.7 3.6-.4 1.7-3.2 1.5 3.3 3.6.7-2.7 2.5m22.9-17l-2.2-1.3-2.2 1.2.5-2.5-1.9-1.9 2.6-.3 1.2-2.3 1 2.4 2.6.5-2 1.7m-13.2 79.4l-2.6-1.6-2.7 1.3.6-3-2.2-2.2 3-.4 1.5-2.7 1.3 2.8 3 .5-2.2 2.1"/>
    <path fill="#ffffef" fill-rule="evenodd" d="M219.4 284.4l-2.7-1.5-2.6 1.3.5-3-2.2-2.2 3.1-.4 1.4-2.7 1.3 2.8 3 .6-2.3 2.1m48.5 58.9l-2.2-1.3-2.2 1 .5-2.4-1.7-1.8 2.4-.3 1.1-2.2 1 2.2 2.4.4-1.8 1.7m90.3-86.8l-2.7-1.5-2.6 1.3.5-3-2.2-2.2 3.1-.4 1.4-2.7 1.3 2.8 3 .5-2.3 2.2m-21.2-12.7l-2.2-1.3-2.2 1 .5-2.4-1.7-1.8 2.4-.3 1.1-2.2 1 2.2 2.4.4-1.8 1.7m-40 208.2l-2.2-1.3-2.2 1 .5-2.3-1.8-1.8 2.5-.3 1-2.2 1 2.2 2.4.5-1.8 1.7m10.7 13.7l-2-1.2-2.2 1 .5-2.3-1.7-1.8 2.4-.3 1.1-2.2.9 2.3 2.4.4-1.8 1.7m60.5-195l-3.2-1.8-3.1 1.5.7-3.6-2.7-2.6 3.6-.4 1.8-3.2 1.6 3.3 3.6.7-2.8 2.4"/>
  </g>
</svg>
